<?xml version="1.0" encoding="utf-8"?>
<!-- Generator: Adobe Illustrator 19.1.0, SVG Export Plug-In . SVG Version: 6.00 Build 0)  -->
<svg version="1.1" id="Lager_1" xmlns="http://www.w3.org/2000/svg" xmlns:xlink="http://www.w3.org/1999/xlink" x="0px" y="0px"
	 viewBox="0 0 200 180" style="enable-background:new 0 0 200 180;" xml:space="preserve">
<style type="text/css">
	.st0{fill:#FFFFFF;}
</style>
<path class="st0" d="M56.3,12C29.9,12,8.4,33.5,8.4,60c0,13.8,6,27,16.4,36.1l0.2,0.2l72.6,72.6c0.6,0.6,1.5,1,2.4,1
	c0.9,0,1.7-0.3,2.4-1l72.6-72.6L175,96c10.5-9.1,16.5-22.3,16.5-36.1c0-26.4-21.5-47.9-47.9-47.9c-16.7,0-32,8.6-40.8,22.9l-2.8,4.6
	l-2.8-4.6C88.3,20.6,73,12,56.3,12 M99.9,176.3c-2.6,0-5.1-1-7-2.9l-72.5-72.5C8.6,90.5,1.8,75.6,1.8,60c0-30,24.4-54.5,54.5-54.5
	c17.4,0,33.3,8.1,43.6,21.9c10.3-13.8,26.2-21.9,43.6-21.9c30,0,54.5,24.4,54.5,54.5c0,15.7-6.8,30.6-18.6,40.9l-72.5,72.5
	C105,175.3,102.5,176.3,99.9,176.3"/>
<path class="st0" d="M115.4,48.8c-0.3-0.3-0.8-0.5-1.3-0.3l-23.9,6.1c-0.6,0.1-1,0.7-1,1.3l-3,43.1c0,0.4,0.2,0.9,0.5,1.2
	c0.3,0.3,0.8,0.4,1.2,0.3l11.4-2.9l-0.8,40.7c0,0.7,0.5,1.3,1.1,1.4c0.2,0,0.4,0,0.6,0c0.4-0.1,0.8-0.4,1-0.9l20.3-56.8
	c0.2-0.5,0.1-1-0.3-1.4c-0.3-0.4-0.9-0.5-1.4-0.4l-11,2.8l6.9-32.8C115.9,49.6,115.7,49.1,115.4,48.8"/>
</svg>
