<?xml version="1.0" encoding="utf-8"?>
<!-- Generator: Adobe Illustrator 19.1.0, SVG Export Plug-In . SVG Version: 6.00 Build 0)  -->
<svg version="1.1" id="Lager_1" xmlns="http://www.w3.org/2000/svg" xmlns:xlink="http://www.w3.org/1999/xlink" x="0px" y="0px"
	 viewBox="0 0 281.3 178.2" style="enable-background:new 0 0 281.3 178.2;" xml:space="preserve">
<style type="text/css">
	.st0{fill:#E63027;}
	.st1{fill:#FFFFFF;}
</style>
<path class="st0" d="M51.7,38.5L51.7,38.5C51.6,38.5,51.6,38.5,51.7,38.5c-1.5,2.3-7.1,6.1-8,5.8l0,0h0c0,0-1.2,0.1-1.7-1.1
	c0-0.1-2.5-8.7-6.6-12.4v0l0,0c0,0-2.2-1.4-6.1-0.3c1.1-1.6,3.3-2.7,5-2.3l0,0h0c0,0,4.9,0.2,7.7,4.7c0,0,0.6,1.7-0.7,3.7l0,0
	l-0.1,0.1l1.2,1l0,0l0,0l7.8-8.1l0,0l0,0c0,0,0,0,0,0c1-1.3,1.3-2.5-0.2-3.9c0,0-1.7-2-4.1-3.9c-2.2-1.7-5.4-3.7-8.3-3.5
	c0-0.3,0.1-0.6,0.2-0.9c0.3-1.3,0.6-2.6-1-4.4l0,0l0,0c-0.1,0-6.3-2.9-11.5-3.4c0,0-4.9-0.8-4.7-5.8c0-0.1,0.5-2.4,1.4-3.4l0,0v0v0
	V0l-0.1,0.1l-7.9,9c0,0,0,0,0,0c-0.5,0.5-0.6,1.1-0.4,1.8c0.4,1.3,1.9,2.6,3.4,2.9c0.1,0,3.3,1.5,6.1,1.5c0.1,0,6,0.3,6.4,2.4l0,0
	c0,0,0,0,0,0c0,0,0,0,0,0.1l-0.1,0.1l0,0v0L29.2,18c-2.4,0.7-3.1,0.4-4.2-0.1c-0.2-0.1-0.4-0.2-0.6-0.3c0,0-2.8-1.1-6.7-2.2
	c-3.6-1-8.8-2.1-13.4-1.8c0,0,0,0,0,0c0,0-0.1,0-0.1,0l0,0l0,0c2.3,1.9,5.2,5.8,5.7,8.8h0.1c0,0,0-0.1,0-0.1c0,0,0-0.1,0-0.1
	c3-2.4,9.2-3.2,10.5-2.1c-4.5,1.3-8.1,4.2-10.3,6.4c-2.6,2.6-4.1,5-4.1,5.8l0,0c0,0-1.4,3-1.7,7c-0.2,2.3,0.3,4.6,0.7,6.5
	c0.5,2.3,1.5,4.2,3,5.7l0,0l0,0l0.2,0.1l0,0h0h26.5H35v-0.1c0,0,0,0,0,0c0-0.1,0-0.1,0-0.1c-1.5-0.5-3.2-1-5.1-1.4
	c-3.2-0.8-6.8-1.6-9.7-3.3c-3.4-1.9-5.3-4.5-5.9-8.1c0-0.1-1.1-7.8,6.5-10c-1.3,1.1-2.2,2.8-2.7,4.9c-0.5,2-0.5,4.2-0.1,6.2
	c0.6,2.9,1.9,4.8,3.7,5.3l0,0c0,0,1.7,0.8,3.9,1c2.1,0.2,5,0,7.5-2.1l0,0v0v-0.1v0l0,0l-0.4-1l0,0l0,0c-4.8,0.3-6.9,0-7.8-2.5
	c0,0-1.9-4.3,2-6.1c0.1,0,2.9-0.6,4.8,3c0,0.1,0.9,3.3,2.6,6.5c1,1.9,2.1,3.4,3.2,4.5c1.4,1.4,2.9,2.2,4.5,2.2c0,0,1.6,0,3.7-1.4
	c1.2-0.8,2.3-2,3.2-3.4c1.2-1.8,2.2-4.1,3-6.8l0,0v0c0,0,0,0,0,0C51.7,38.6,51.7,38.5,51.7,38.5z M30.9,19.4l0.1-0.1
	c0.1,0,0.1,0,0.1,0c0,0,0-0.1,0-0.1c0.9-0.4,2.1-0.5,2.5-0.3c0,0,2,1,2.5,2.1c-1.5-0.6-2.8-0.5-4.1-0.4c0,0-1.2,0.1-2,0.2
	C30.1,20.2,30.4,19.7,30.9,19.4z M14,9.1C14,9.1,14,9.1,14,9.1C14,9.1,14,9.2,14,9.1L14,9.1z"/>
<rect x="1.7" y="61.6" class="st1" width="49.2" height="18.6"/>
<rect x="232" y="61.6" class="st1" width="48.5" height="18.6"/>
<path class="st1" d="M70.1,64.4c-1.4-0.5-2.1-0.8-3.5-0.8c-1.5,0-3.2,0.5-3.2,2.5c0,3.6,8,2.7,8,8.8c0,4-3.1,5.5-6.8,5.5
	c-1.3,0-2.6-0.4-3.8-0.8l0.3-2.5c0.9,0.4,2.5,0.9,3.9,0.9c1.5,0,3.6-0.9,3.6-3c0-4.1-8-3-8-8.8c0-3.3,2.6-5.1,6-5.1
	c1.2,0,2.7,0.2,4,0.7L70.1,64.4z"/>
<path class="st1" d="M92.1,72.5c0,5.2-2.6,8-7.2,8c-4.6,0-7.2-2.8-7.2-8V61.6h2.7v10.5c0,3.6,1.1,6,4.5,6c3.4,0,4.5-2.4,4.5-6V61.6
	h2.7V72.5z"/>
<path class="st1" d="M99.5,61.6h3.6l8.2,14.9h0.1V61.6h2.7v18.6h-3.4l-8.4-15.3h-0.1v15.3h-2.7V61.6z"/>
<path class="st1" d="M121.8,61.6h5.5c5.5,0,9.9,3.4,9.9,9.1c0,6.2-3.8,9.4-9.9,9.4h-5.5V61.6z M124.4,77.8h2.8c4.6,0,7.1-2.2,7.1-7
	c0-4.3-3-6.9-6.8-6.9h-3.1V77.8z"/>
<path class="st1" d="M151.7,64.4c-1.4-0.5-2.1-0.8-3.5-0.8c-1.5,0-3.2,0.5-3.2,2.5c0,3.6,8,2.7,8,8.8c0,4-3.1,5.5-6.8,5.5
	c-1.3,0-2.6-0.4-3.8-0.8l0.3-2.5c0.9,0.4,2.5,0.9,3.9,0.9c1.5,0,3.6-0.9,3.6-3c0-4.1-8-3-8-8.8c0-3.3,2.6-5.1,6-5.1
	c1.2,0,2.7,0.2,4,0.7L151.7,64.4z"/>
<path class="st1" d="M167.4,80.1H164l-7-18.6h3l5.7,16.2h0.1l5.9-16.2h2.8L167.4,80.1z"/>
<path class="st1" d="M183.2,61.6h2.8l7.8,18.6H191l-1.9-4.7H180l-1.9,4.7h-2.8L183.2,61.6z M184.5,64.1l-3.7,9.2h7.4L184.5,64.1z"/>
<path class="st1" d="M198.7,61.6h2.7v16.2h7.8v2.3h-10.4V61.6z"/>
<path class="st1" d="M213.7,61.6h2.7v16.2h7.8v2.3h-10.4V61.6z"/>
<g>
	<path class="st1" d="M21.1,152.7c1.2,8.3,7.5,11.6,17.7,11.6c5.7,0,12.2-1.3,18.4-4.6v14.7c-6.7,2.7-14.4,3.8-22.1,3.8
		C15.2,178.2,0,166.5,0,146.6C0,126.6,13.6,115,32.3,115c22.4,0,30.5,15.9,30.5,33.8v3.8H21.1z M44,140.9c0-7-3.2-12.6-11.6-12.6
		c-7.5,0-11.1,5.7-11.6,12.6H44z"/>
	<path class="st1" d="M69.5,94.5h20.9v82.3H69.5V94.5z"/>
	<path class="st1" d="M101.3,116.4h19v11.1h0.2c4.2-8.7,12.5-12.5,22-12.5c16.5,0,23.1,11.6,23.1,24.1v37.7h-20.9v-29.2
		c0-11.4-3.9-15.2-9.6-15.2c-8.6,0-13,5.9-13,18.9v25.5h-20.9V116.4z"/>
	<path class="st1" d="M214.3,176.8c-0.1-3.2-0.5-6.4-0.5-9.5h-0.2c-4.7,7.5-10.5,10.9-19.1,10.9c-11.9,0-22.6-5.9-22.6-19
		c0-18.4,20.1-20.6,31.2-20.6c3.4,0,7.1,0.4,9.7,0.8c-0.1-8.2-6.3-10.4-13.8-10.4c-6.7,0-13.4,1.3-19.2,4.5l-0.3-14.2
		c7.4-3,15.2-4.3,24.1-4.3c15.4,0,28.7,6.6,28.7,25v22.5c0,4.8,0.2,9.5,1.2,14.3H214.3z M182.2,94.5h16.7v16.7h-16.7V94.5z
		 M199.9,164.3c7.9,0,12.9-7.2,12.9-14.3c-2.7-0.1-5.7-0.3-8.8-0.3c-7.1,0-12.6,2.2-12.6,8C191.4,161.9,195.1,164.3,199.9,164.3z
		 M208.6,94.5h16.7v16.7h-16.7V94.5z"/>
	<path class="st1" d="M236.9,116.4h8.4v-13.6l20.5-6.4v19.9h14.6V131h-14.6v22.3c0,7.3,1.7,11,8.3,11c2.1,0,4.3-0.5,6.4-0.8
		l0.7,13.6c-3.9,0.5-7.9,1.2-13.1,1.2c-18.7,0-23.2-8.2-23.2-22.6V131h-8.1V116.4z"/>
</g>
</svg>
